<svg width="255" height="83" viewBox="0 0 255 83" fill="none" xmlns="http://www.w3.org/2000/svg">
<path fill-rule="evenodd" clip-rule="evenodd" d="M29.0282 17.2111C25.1336 17.2111 20.5116 18.0368 15.4616 23.8918V7.50641C15.4616 3.36716 12.102 0 7.97211 0C3.84222 0 0.482666 3.36716 0.482666 7.50641V60.9413C0.482666 65.0806 3.84222 68.4477 7.97211 68.4477C12.102 68.4477 15.4616 65.0806 15.4616 60.9413V40.2022C15.4616 34.24 18.2861 30.9479 23.4325 30.9479C28.4718 30.9479 31.1252 34.1434 31.1252 40.2022V60.9413C31.1252 65.0806 34.4847 68.4477 38.6146 68.4477C42.7445 68.4477 46.1041 65.0806 46.1041 60.9413V35.8485C46.0934 24.1814 39.7167 17.2111 29.0282 17.2111ZM72.0397 17.5759C65.9412 17.5759 61.1051 18.3695 56.3654 20.1496C53.9046 21.0718 52.2569 23.4524 52.2569 26.0689C52.2569 29.5648 55.028 32.2992 58.5694 32.2992C59.297 32.2992 59.9068 32.192 60.7414 31.9132C63.6194 31.0124 66.658 30.5835 70.0497 30.5835C78.0955 30.5835 79.8073 35.0337 79.8287 38.7976C77.0362 37.8862 73.5162 37.0497 68.6053 37.0497C55.809 37.0497 48.4694 42.9154 48.4694 53.1563V53.3386C48.4694 62.593 55.4025 68.8126 65.7165 68.8126C71.5262 68.8126 76.1803 67.0432 79.8929 63.4187C80.5242 66.0674 83.0599 68.4587 86.9544 68.4587C91.0522 68.4587 94.262 65.2846 94.262 61.2311V39.1086C94.262 32.1491 92.4431 26.7874 88.8375 23.1843C85.1141 19.4633 79.465 17.5759 72.0397 17.5759ZM69.8678 58.0569C65.6202 58.0569 62.9882 56.0409 62.9882 52.7917V52.6094C62.9882 48.7383 66.2194 46.5292 71.8578 46.5292C74.7466 46.5292 77.6247 47.0976 80.0106 48.127V50.1752C80.0106 54.8077 75.8379 58.0569 69.8678 58.0569ZM114.333 24.0211C118.206 19.4422 122.978 17.2117 128.884 17.2117C140.151 17.2117 151.545 26.0371 151.545 42.9158V43.0981C151.545 50.8726 149.159 57.4568 144.655 62.1537C140.536 66.4538 134.94 68.8129 128.884 68.8129C123.053 68.8129 118.42 66.8184 114.408 62.5719V75.44C114.408 79.5793 111.049 82.9464 106.919 82.9464C102.789 82.9464 99.4293 79.5793 99.4293 75.44V25.0827C99.4293 20.9435 102.789 17.5763 106.919 17.5763C110.696 17.5763 113.82 20.3859 114.333 24.0211ZM136.577 42.9158C136.577 35.6346 131.752 30.1335 125.354 30.1335C118.913 30.1335 114.226 35.5059 114.226 42.9158V43.0981C114.226 50.508 118.902 55.8805 125.354 55.8805C131.859 55.8805 136.577 50.508 136.577 43.0981V42.9158ZM184.456 17.2117C178.55 17.2117 173.778 19.4422 169.905 24.0211C169.391 20.3859 166.267 17.5763 162.49 17.5763C158.36 17.5763 155.001 20.9435 155.001 25.0827V75.44C155.001 79.5793 158.36 82.9464 162.49 82.9464C166.62 82.9464 169.98 79.5793 169.98 75.44V62.5719C173.992 66.8184 178.625 68.8129 184.456 68.8129C190.511 68.8129 196.107 66.4538 200.226 62.1537C204.731 57.4568 207.117 50.8726 207.117 43.0981V42.9158C207.117 26.0371 195.722 17.2117 184.456 17.2117ZM180.925 30.1335C187.323 30.1335 192.148 35.6346 192.148 42.9158V43.0981C192.148 50.508 187.43 55.8805 180.925 55.8805C174.473 55.8805 169.798 50.508 169.798 43.0981V42.9158C169.798 35.5059 174.484 30.1335 180.925 30.1335ZM240.53 23.238C241.921 19.5277 244.403 17.5761 247.71 17.5761C251.7 17.5761 254.835 20.6322 254.825 24.5141C254.825 25.6401 254.461 27.2701 254.14 28.0207L237.246 68.684C232.998 78.9893 228.569 82.6459 220.32 82.6459C217.409 82.6459 215.173 82.2599 212.605 81.3377C210.84 80.6943 207.866 79.0214 207.866 75.0537C207.866 71.1504 210.936 68.8234 213.9 68.8234C215.077 68.8234 215.783 69.0272 216.35 69.2202C217.516 69.5848 218.158 69.7349 219.046 69.7349C221.293 69.7349 222.235 69.3703 223.369 67.1935L223.711 66.3785L207.277 28.2137C206.903 27.2701 206.507 25.8117 206.507 24.7929C206.507 20.6751 209.685 17.5653 213.9 17.5653C217.377 17.5653 219.731 19.3883 221.079 23.1415L230.976 49.8107L240.53 23.238Z" fill="black"/>
</svg>
